solid OpenSCAD_Model
  facet normal -1 0 0
    outer loop
      vertex -10.9 -10.9 12.7
      vertex -10.9 -10.9 38.1
      vertex -10.9 10.9 38.1
    endloop
  endfacet
  facet normal -1 0 0
    outer loop
      vertex -10.9 -10.9 12.7
      vertex -10.9 10.9 38.1
      vertex -10.9 10.9 12.7
    endloop
  endfacet
  facet normal 0 -1 0
    outer loop
      vertex -10.9 -10.9 12.7
      vertex 10.9 -10.9 12.7
      vertex 10.9 -10.9 38.1
    endloop
  endfacet
  facet normal 0 -1 0
    outer loop
      vertex -10.9 -10.9 12.7
      vertex 10.9 -10.9 38.1
      vertex -10.9 -10.9 38.1
    endloop
  endfacet
  facet normal 0 0 1
    outer loop
      vertex -10.9 -10.9 12.7
      vertex 12.7 -12.7 12.7
      vertex 10.9 -10.9 12.7
    endloop
  endfacet
  facet normal 0 0 1
    outer loop
      vertex -10.9 -10.9 38.1
      vertex 10.9 -10.9 38.1
      vertex -10.9 10.9 38.1
    endloop
  endfacet
  facet normal 0 -1 0
    outer loop
      vertex -10.9 -12.7 10.9
      vertex 10.9 -12.7 10.9
      vertex 12.7 -12.7 12.7
    endloop
  endfacet
  facet normal 0 0 1
    outer loop
      vertex -10.9 -12.7 10.9
      vertex 10.9 -38.1 10.9
      vertex 10.9 -12.7 10.9
    endloop
  endfacet
  facet normal 0 0 -1
    outer loop
      vertex -10.9 -38.1 -10.9
      vertex -10.9 -12.7 -10.9
      vertex 10.9 -12.7 -10.9
    endloop
  endfacet
  facet normal -1 0 0
    outer loop
      vertex -10.9 -38.1 -10.9
      vertex -10.9 -12.7 10.9
      vertex -10.9 -12.7 -10.9
    endloop
  endfacet
  facet normal -1 0 0
    outer loop
      vertex -10.9 -38.1 -10.9
      vertex -10.9 -38.1 10.9
      vertex -10.9 -12.7 10.9
    endloop
  endfacet
  facet normal 0 0 -1
    outer loop
      vertex -10.9 -38.1 -10.9
      vertex 10.9 -12.7 -10.9
      vertex 10.9 -38.1 -10.9
    endloop
  endfacet
  facet normal 0 -1 0
    outer loop
      vertex -10.9 -38.1 -10.9
      vertex 10.9 -38.1 -10.9
      vertex 10.9 -38.1 10.9
    endloop
  endfacet
  facet normal 0 -1 0
    outer loop
      vertex -10.9 -38.1 -10.9
      vertex 10.9 -38.1 10.9
      vertex -10.9 -38.1 10.9
    endloop
  endfacet
  facet normal 0 0 1
    outer loop
      vertex -10.9 -38.1 10.9
      vertex 10.9 -38.1 10.9
      vertex -10.9 -12.7 10.9
    endloop
  endfacet
  facet normal 0 1 0
    outer loop
      vertex -10.9 10.9 12.7
      vertex -10.9 10.9 38.1
      vertex 10.9 10.9 12.7
    endloop
  endfacet
  facet normal 0 0 1
    outer loop
      vertex -10.9 10.9 12.7
      vertex 10.9 10.9 12.7
      vertex 12.7 12.7 12.7
    endloop
  endfacet
  facet normal 0 0 1
    outer loop
      vertex -10.9 10.9 38.1
      vertex 10.9 -10.9 38.1
      vertex 10.9 10.9 38.1
    endloop
  endfacet
  facet normal 0 1 0
    outer loop
      vertex -10.9 10.9 38.1
      vertex 10.9 10.9 38.1
      vertex 10.9 10.9 12.7
    endloop
  endfacet
  facet normal 0 -1 0
    outer loop
      vertex -12.7 -12.7 -12.7
      vertex -10.9 -12.7 -10.9
      vertex -12.7 -12.7 12.7
    endloop
  endfacet
  facet normal -1 0 0
    outer loop
      vertex -12.7 -12.7 -12.7
      vertex -12.7 -12.7 12.7
      vertex -12.7 12.7 12.7
    endloop
  endfacet
  facet normal 0 0 -1
    outer loop
      vertex -12.7 -12.7 -12.7
      vertex -12.7 12.7 -12.7
      vertex 12.7 12.7 -12.7
    endloop
  endfacet
  facet normal -1 0 0
    outer loop
      vertex -12.7 -12.7 -12.7
      vertex -12.7 12.7 12.7
      vertex -12.7 12.7 -12.7
    endloop
  endfacet
  facet normal 0 -1 0
    outer loop
      vertex -12.7 -12.7 -12.7
      vertex 10.9 -12.7 -10.9
      vertex -10.9 -12.7 -10.9
    endloop
  endfacet
  facet normal 0 -1 0
    outer loop
      vertex -12.7 -12.7 -12.7
      vertex 12.7 -12.7 -12.7
      vertex 10.9 -12.7 -10.9
    endloop
  endfacet
  facet normal 0 0 -1
    outer loop
      vertex -12.7 -12.7 -12.7
      vertex 12.7 12.7 -12.7
      vertex 12.7 -12.7 -12.7
    endloop
  endfacet
  facet normal 0 0 1
    outer loop
      vertex -12.7 -12.7 12.7
      vertex -10.9 -10.9 12.7
      vertex -12.7 12.7 12.7
    endloop
  endfacet
  facet normal 0 -1 0
    outer loop
      vertex -12.7 -12.7 12.7
      vertex -10.9 -12.7 -10.9
      vertex -10.9 -12.7 10.9
    endloop
  endfacet
  facet normal 0 -1 0
    outer loop
      vertex -12.7 -12.7 12.7
      vertex -10.9 -12.7 10.9
      vertex 12.7 -12.7 12.7
    endloop
  endfacet
  facet normal 0 0 1
    outer loop
      vertex -12.7 -12.7 12.7
      vertex 12.7 -12.7 12.7
      vertex -10.9 -10.9 12.7
    endloop
  endfacet
  facet normal 0 1 0
    outer loop
      vertex -12.7 12.7 -12.7
      vertex -12.7 12.7 12.7
      vertex 12.7 12.7 -12.7
    endloop
  endfacet
  facet normal 0 0 1
    outer loop
      vertex -12.7 12.7 12.7
      vertex -10.9 -10.9 12.7
      vertex -10.9 10.9 12.7
    endloop
  endfacet
  facet normal 0 0 1
    outer loop
      vertex -12.7 12.7 12.7
      vertex -10.9 10.9 12.7
      vertex 12.7 12.7 12.7
    endloop
  endfacet
  facet normal 0 1 0
    outer loop
      vertex -12.7 12.7 12.7
      vertex 12.7 12.7 12.7
      vertex 12.7 12.7 -12.7
    endloop
  endfacet
  facet normal 1 0 0
    outer loop
      vertex 10.9 -10.9 12.7
      vertex 10.9 10.9 12.7
      vertex 10.9 -10.9 38.1
    endloop
  endfacet
  facet normal 0 0 1
    outer loop
      vertex 10.9 -10.9 12.7
      vertex 12.7 -12.7 12.7
      vertex 10.9 10.9 12.7
    endloop
  endfacet
  facet normal 1 0 0
    outer loop
      vertex 10.9 -10.9 38.1
      vertex 10.9 10.9 12.7
      vertex 10.9 10.9 38.1
    endloop
  endfacet
  facet normal 0 -1 0
    outer loop
      vertex 10.9 -12.7 -10.9
      vertex 12.7 -12.7 -12.7
      vertex 12.7 -12.7 12.7
    endloop
  endfacet
  facet normal 0 -1 0
    outer loop
      vertex 10.9 -12.7 -10.9
      vertex 12.7 -12.7 12.7
      vertex 10.9 -12.7 10.9
    endloop
  endfacet
  facet normal 1 0 0
    outer loop
      vertex 10.9 -38.1 -10.9
      vertex 10.9 -12.7 -10.9
      vertex 10.9 -38.1 10.9
    endloop
  endfacet
  facet normal 1 0 0
    outer loop
      vertex 10.9 -38.1 10.9
      vertex 10.9 -12.7 -10.9
      vertex 10.9 -12.7 10.9
    endloop
  endfacet
  facet normal 0 0 1
    outer loop
      vertex 10.9 10.9 12.7
      vertex 12.7 -12.7 12.7
      vertex 12.7 12.7 12.7
    endloop
  endfacet
  facet normal 0 0 -1
    outer loop
      vertex 12.7 -10.9 -10.9
      vertex 12.7 10.9 -10.9
      vertex 38.1 10.9 -10.9
    endloop
  endfacet
  facet normal 1 0 0
    outer loop
      vertex 12.7 -10.9 -10.9
      vertex 12.7 12.7 -12.7
      vertex 12.7 10.9 -10.9
    endloop
  endfacet
  facet normal 0 -1 0
    outer loop
      vertex 12.7 -10.9 -10.9
      vertex 38.1 -10.9 -10.9
      vertex 38.1 -10.9 10.9
    endloop
  endfacet
  facet normal 0 -1 0
    outer loop
      vertex 12.7 -10.9 -10.9
      vertex 38.1 -10.9 10.9
      vertex 12.7 -10.9 10.9
    endloop
  endfacet
  facet normal 0 0 -1
    outer loop
      vertex 12.7 -10.9 -10.9
      vertex 38.1 10.9 -10.9
      vertex 38.1 -10.9 -10.9
    endloop
  endfacet
  facet normal 1 0 0
    outer loop
      vertex 12.7 -10.9 10.9
      vertex 12.7 10.9 10.9
      vertex 12.7 12.7 12.7
    endloop
  endfacet
  facet normal 0 0 1
    outer loop
      vertex 12.7 -10.9 10.9
      vertex 38.1 -10.9 10.9
      vertex 12.7 10.9 10.9
    endloop
  endfacet
  facet normal 1 0 0
    outer loop
      vertex 12.7 -12.7 -12.7
      vertex 12.7 -10.9 -10.9
      vertex 12.7 -12.7 12.7
    endloop
  endfacet
  facet normal 1 0 0
    outer loop
      vertex 12.7 -12.7 -12.7
      vertex 12.7 12.7 -12.7
      vertex 12.7 -10.9 -10.9
    endloop
  endfacet
  facet normal 1 0 0
    outer loop
      vertex 12.7 -12.7 12.7
      vertex 12.7 -10.9 -10.9
      vertex 12.7 -10.9 10.9
    endloop
  endfacet
  facet normal 1 0 0
    outer loop
      vertex 12.7 -12.7 12.7
      vertex 12.7 -10.9 10.9
      vertex 12.7 12.7 12.7
    endloop
  endfacet
  facet normal 0 1 0
    outer loop
      vertex 12.7 10.9 -10.9
      vertex 12.7 10.9 10.9
      vertex 38.1 10.9 -10.9
    endloop
  endfacet
  facet normal 1 0 0
    outer loop
      vertex 12.7 10.9 -10.9
      vertex 12.7 12.7 -12.7
      vertex 12.7 10.9 10.9
    endloop
  endfacet
  facet normal 1 0 0
    outer loop
      vertex 12.7 10.9 10.9
      vertex 12.7 12.7 -12.7
      vertex 12.7 12.7 12.7
    endloop
  endfacet
  facet normal 0 0 1
    outer loop
      vertex 12.7 10.9 10.9
      vertex 38.1 -10.9 10.9
      vertex 38.1 10.9 10.9
    endloop
  endfacet
  facet normal 0 1 0
    outer loop
      vertex 12.7 10.9 10.9
      vertex 38.1 10.9 10.9
      vertex 38.1 10.9 -10.9
    endloop
  endfacet
  facet normal 1 0 0
    outer loop
      vertex 38.1 -10.9 -10.9
      vertex 38.1 10.9 -10.9
      vertex 38.1 -10.9 10.9
    endloop
  endfacet
  facet normal 1 0 0
    outer loop
      vertex 38.1 -10.9 10.9
      vertex 38.1 10.9 -10.9
      vertex 38.1 10.9 10.9
    endloop
  endfacet
endsolid OpenSCAD_Model
